<?xml version="1.0" standalone="no"?>
<!DOCTYPE svg PUBLIC "-//W3C//DTD SVG 20010904//EN"
 "http://www.w3.org/TR/2001/REC-SVG-20010904/DTD/svg10.dtd">
<svg version="1.0" xmlns="http://www.w3.org/2000/svg"
 width="778.000000pt" height="778.000000pt" viewBox="0 0 778.000000 778.000000"
 preserveAspectRatio="xMidYMid meet">
<metadata>
Created by potrace 1.14, written by Peter Selinger 2001-2017
</metadata>
<g transform="translate(0.000000,778.000000) scale(0.100000,-0.100000)"
fill="#000000" stroke="none">
<path d="M3650 6547 c-3 -3 -43 -7 -90 -11 -293 -21 -675 -132 -965 -281 -417
-215 -671 -433 -1013 -870 -14 -18 -98 -148 -134 -210 -121 -203 -250 -519
-284 -694 -3 -14 -7 -27 -9 -31 -8 -12 -36 -156 -56 -285 -17 -104 -21 -180
-21 -380 -1 -282 15 -422 75 -665 6 -25 10 -46 9 -47 0 -2 6 -22 14 -45 9 -24
18 -54 20 -67 12 -58 101 -278 169 -416 240 -484 631 -898 1110 -1172 312
-179 659 -293 1050 -345 147 -19 520 -16 674 6 69 9 128 19 131 21 4 3 26 7
50 10 92 11 310 76 500 148 203 77 518 261 689 402 140 115 323 296 406 400
22 28 43 52 46 55 18 16 149 208 194 285 218 371 326 689 381 1125 19 147 22
441 6 555 -7 44 -14 103 -16 131 -3 28 -9 71 -14 95 -37 170 -49 216 -78 314
-101 335 -237 603 -447 883 -153 204 -377 422 -582 568 -119 84 -131 92 -217
142 -344 201 -699 320 -1093 368 -60 7 -499 17 -505 11z m1072 -1699 c117 -54
188 -147 210 -277 19 -114 -8 -224 -135 -542 -180 -450 -231 -624 -205 -704
18 -56 52 -73 109 -56 34 10 65 34 134 105 97 98 181 217 294 416 40 69 80
129 90 133 11 6 32 3 56 -7 35 -15 37 -18 31 -47 -3 -17 -27 -79 -52 -137
-250 -577 -602 -998 -930 -1113 -169 -59 -403 -20 -501 83 -57 60 -77 112 -81
216 -9 195 42 374 233 816 98 228 155 385 155 428 0 138 -152 59 -343 -178
-118 -148 -280 -423 -373 -634 -67 -152 -147 -402 -186 -577 l-33 -153 -337 0
-338 0 6 63 c36 381 199 984 392 1452 69 166 246 527 321 653 l43 72 289 0
c159 0 289 -2 289 -5 0 -3 -36 -73 -79 -157 -44 -84 -103 -205 -132 -268 -62
-139 -169 -400 -164 -400 2 0 23 33 46 73 240 412 533 679 826 751 93 24 103
25 208 22 84 -2 110 -7 157 -28z"/>
</g>
</svg>
